<?xml version="1.0" encoding="UTF-8" standalone="no"?>
<!DOCTYPE svg PUBLIC "-//W3C//DTD SVG 1.1//EN" "http://www.w3.org/Graphics/SVG/1.1/DTD/svg11.dtd">
<svg width="100%" height="100%" viewBox="0 0 256 257" version="1.1" xmlns="http://www.w3.org/2000/svg" xmlns:xlink="http://www.w3.org/1999/xlink" xml:space="preserve" style="fill-rule:evenodd;clip-rule:evenodd;stroke-linejoin:round;stroke-miterlimit:1.41421;">
    <path id="BG" d="M128.001,0.167C198.693,0.167 256.001,57.475 256.001,128.167C256.001,198.859 198.693,256.167 128.001,256.167C57.309,256.167 0.001,198.859 0.001,128.167C0.001,57.475 57.309,0.167 128.001,0.167Z" style="fill:url(#_Radial1);"/>
    <path id="Logo" d="M171.056,69.985C157.56,69.985 146.619,80.925 146.619,94.421C146.619,107.917 157.559,118.858 171.056,118.858C184.553,118.858 195.493,107.918 195.493,94.421C195.492,80.925 184.552,69.985 171.056,69.985ZM171.056,46.712C144.733,46.712 123.392,68.029 123.348,94.341L92.123,140.137C90.536,139.923 88.919,139.803 87.273,139.803C79.624,139.803 72.536,142.191 66.7,146.251L0.301,119.468C0.108,122.343 0.001,125.242 0.001,128.167C0.001,140.354 1.705,152.142 4.886,163.308L51.844,182.641C55.011,199.329 69.664,211.95 87.274,211.95C107.197,211.95 123.347,195.8 123.347,175.877C123.347,174.997 123.305,174.128 123.243,173.264L170.982,142.13C171.007,142.13 171.032,142.132 171.057,142.132C197.406,142.132 218.766,120.772 218.766,94.423C218.766,68.074 197.404,46.712 171.056,46.712ZM87.273,202.639C76.561,202.639 67.323,196.343 63.046,187.252L78.905,193.781C79.455,194.039 80.018,194.269 80.594,194.476L81.163,194.71L81.172,194.688C83.094,195.311 85.142,195.657 87.272,195.657C98.197,195.657 107.054,186.801 107.054,175.875C107.054,168.227 102.705,161.604 96.351,158.312L96.387,158.226L95.077,157.698C94.969,157.652 94.859,157.611 94.75,157.566L77.94,150.786C80.846,149.705 83.988,149.111 87.271,149.111C102.052,149.111 114.035,161.093 114.035,175.875C114.035,190.657 102.055,202.639 87.273,202.639ZM171.056,128.167C152.418,128.167 137.31,113.059 137.31,94.421C137.31,75.783 152.418,60.676 171.056,60.676C189.693,60.676 204.801,75.784 204.801,94.421C204.801,113.058 189.692,128.167 171.056,128.167Z" style="fill:white;fill-rule:nonzero;"/>
    <defs>
        <radialGradient id="_Radial1" cx="0" cy="0" r="1" gradientUnits="userSpaceOnUse" gradientTransform="matrix(62.431,209.355,-209.355,62.431,113.231,33.283)"><stop offset="0%" style="stop-color:rgb(43,213,99);stop-opacity:1"/><stop offset="100%" style="stop-color:rgb(0,130,213);stop-opacity:1"/></radialGradient>
    </defs>
</svg>
